<svg width="20" height="20" viewBox="0 0 20 20" fill="none" xmlns="http://www.w3.org/2000/svg">
<path d="M19.3749 0H0.624998C0.459238 0 0.300267 0.07266 0.183058 0.201995C0.0658478 0.331331 0 0.506747 0 0.689655V1.84138C0.000116863 2.00427 0.0294462 2.16552 0.0862977 2.31584C0.143149 2.46616 0.226399 2.60258 0.331249 2.71724L7.49997 10.7448V17.7793L8.74997 18.3034V10.3448C8.75045 10.2541 8.73468 10.1641 8.70358 10.0801C8.67247 9.99604 8.62665 9.91961 8.56872 9.85517L1.25 1.78621V1.37931H18.7499V1.8L11.4562 9.85517C11.3938 9.91729 11.3433 9.99266 11.3079 10.0768C11.2724 10.1609 11.2527 10.2521 11.25 10.3448V19.4552L12.5 20V10.6897L19.6687 2.75862C19.7752 2.64105 19.8594 2.50119 19.9163 2.34723C19.9732 2.19327 20.0016 2.02832 19.9999 1.86207V0.689655C19.9999 0.506747 19.9341 0.331331 19.8169 0.201995C19.6997 0.07266 19.5407 0 19.3749 0Z" fill="white"/>
</svg>
