<svg width="39" height="48" viewBox="0 0 39 48" fill="none" xmlns="http://www.w3.org/2000/svg">
<path d="M36.5625 0C35.2152 0 34.125 0.716406 34.125 1.6V4.8H4.875V1.6C4.875 0.716406 3.78479 0 2.4375 0C1.09021 0 0 0.716406 0 1.6V12.8C0 17.6159 4.07683 21.8156 10.0806 24C4.07683 26.1844 0 30.3841 0 35.2V46.4C0 47.2836 1.09021 48 2.4375 48C3.78479 48 4.875 47.2836 4.875 46.4V43.2H34.125V46.4C34.125 47.2836 35.2152 48 36.5625 48C37.9098 48 39 47.2836 39 46.4V35.2C39 30.3841 34.9232 26.1844 28.9194 24C34.9232 21.8156 39 17.6159 39 12.8V1.6C39 0.716406 37.9098 0 36.5625 0ZM34.125 8V11.2H4.875V8H34.125ZM32.0962 17.6541C31.9581 17.6382 31.8326 17.6 31.6875 17.6H7.3125C7.16745 17.6 7.04188 17.6383 6.90382 17.6542C6.01788 16.6676 5.39615 15.5705 5.09518 14.4H33.9048C33.6038 15.5705 32.9821 16.6675 32.0962 17.6541ZM31.6875 30.4C31.8326 30.4 31.9581 30.3618 32.0962 30.3459C32.9821 31.3325 33.6038 32.4295 33.9048 33.6H5.09518C5.39615 32.4295 6.01788 31.3324 6.90382 30.3458C7.04188 30.3617 7.16745 30.4 7.3125 30.4H31.6875ZM4.875 40V36.8H34.125V40H4.875ZM27.5671 27.2H11.4329C13.7474 26.1911 16.5195 25.6 19.5 25.6C22.4805 25.6 25.2526 26.1911 27.5671 27.2ZM11.4329 20.8H27.5671C25.2526 21.8089 22.4805 22.4 19.5 22.4C16.5195 22.4 13.7474 21.8089 11.4329 20.8Z" fill="#424242"/>
</svg>
