<svg width="46" height="46" viewBox="0 0 46 46" fill="none" xmlns="http://www.w3.org/2000/svg">
<path d="M23 0C18.451 0 14.0042 1.34893 10.2219 3.8762C6.43956 6.40347 3.4916 9.99558 1.75078 14.1983C0.00996551 18.401 -0.445511 23.0255 0.441949 27.4871C1.32941 31.9486 3.51995 36.0468 6.73655 39.2634C9.95316 42.4801 14.0514 44.6706 18.5129 45.5581C22.9745 46.4455 27.599 45.99 31.8017 44.2492C36.0044 42.5084 39.5965 39.5604 42.1238 35.7781C44.6511 31.9958 46 27.549 46 23C46 16.9 43.5768 11.0499 39.2635 6.73654C34.9501 2.42321 29.1 0 23 0ZM15.6072 14.7857C16.4195 14.7857 17.2135 15.0266 17.889 15.4779C18.5644 15.9292 19.0908 16.5706 19.4017 17.3211C19.7125 18.0716 19.7938 18.8974 19.6354 19.6941C19.4769 20.4908 19.0857 21.2226 18.5113 21.797C17.9369 22.3714 17.2051 22.7626 16.4084 22.9211C15.6117 23.0796 14.7859 22.9982 14.0354 22.6874C13.2849 22.3765 12.6435 21.8501 12.1922 21.1747C11.7409 20.4992 11.5 19.7052 11.5 18.8929C11.4956 18.3523 11.5989 17.8162 11.8037 17.316C12.0086 16.8157 12.3109 16.3612 12.6932 15.9789C13.0755 15.5966 13.53 15.2943 14.0303 15.0894C14.5305 14.8846 15.0666 14.7813 15.6072 14.7857ZM23 36.1428C20.7323 36.139 18.5041 35.5485 16.5321 34.4286C14.5601 33.3088 12.9115 31.6977 11.7464 29.7521L14.5557 28.1093C15.4324 29.5652 16.6707 30.7697 18.1503 31.6058C19.6299 32.442 21.3005 32.8814 23 32.8814C24.6995 32.8814 26.3701 32.442 27.8497 31.6058C29.3293 30.7697 30.5676 29.5652 31.4443 28.1093L34.2536 29.7521C33.0885 31.6977 31.4399 33.3088 29.4679 34.4286C27.4959 35.5485 25.2678 36.139 23 36.1428ZM30.3929 23C29.5805 23 28.7865 22.7591 28.1111 22.3078C27.4356 21.8565 26.9092 21.2151 26.5984 20.4646C26.2875 19.7141 26.2062 18.8883 26.3646 18.0916C26.5231 17.2949 26.9143 16.5631 27.4887 15.9887C28.0631 15.4143 28.7949 15.0231 29.5916 14.8646C30.3883 14.7062 31.2141 14.7875 31.9646 15.0983C32.7151 15.4092 33.3565 15.9356 33.8078 16.611C34.2591 17.2865 34.5 18.0805 34.5 18.8929C34.5044 19.4334 34.4011 19.9695 34.1963 20.4698C33.9914 20.97 33.6891 21.4245 33.3068 21.8068C32.9245 22.1891 32.47 22.4914 31.9698 22.6963C31.4695 22.9011 30.9334 23.0044 30.3929 23Z" fill="#424242"/>
</svg>
