<svg width="35" height="35" viewBox="0 0 35 35" fill="none" xmlns="http://www.w3.org/2000/svg">
<path fill-rule="evenodd" clip-rule="evenodd" d="M9.45788 26.8748C15.4472 25.9998 19.5711 26.075 25.5684 26.9054C26.0027 26.9683 26.3996 27.1863 26.6857 27.5191C26.9718 27.8518 27.1278 28.2769 27.125 28.7157C27.125 29.1357 26.9806 29.5435 26.7199 29.862C26.2654 30.4173 25.7998 30.9634 25.3234 31.5H27.6343C27.7795 31.3267 27.9256 31.15 28.0735 30.9706C28.5925 30.3342 28.8757 29.5379 28.875 28.7166C28.875 26.9447 27.5817 25.4179 25.8081 25.1729C19.6691 24.3232 15.3781 24.2419 9.205 25.144C7.413 25.4056 6.125 26.9561 6.125 28.7402C6.125 29.5321 6.38313 30.3152 6.87225 30.9496C7.01663 31.1369 7.15925 31.3206 7.301 31.5009H9.55587C9.11262 30.9702 8.68028 30.4305 8.25913 29.8821C8.00884 29.5538 7.87383 29.1522 7.875 28.7394C7.875 27.797 8.55225 27.0069 9.45788 26.8748ZM17.5 18.375C18.1894 18.375 18.8721 18.2392 19.5091 17.9754C20.146 17.7115 20.7248 17.3248 21.2123 16.8373C21.6998 16.3498 22.0865 15.771 22.3504 15.1341C22.6142 14.4971 22.75 13.8144 22.75 13.125C22.75 12.4356 22.6142 11.7529 22.3504 11.1159C22.0865 10.479 21.6998 9.9002 21.2123 9.41269C20.7248 8.92518 20.146 8.53847 19.5091 8.27463C18.8721 8.0108 18.1894 7.875 17.5 7.875C16.1076 7.875 14.7723 8.42812 13.7877 9.41269C12.8031 10.3973 12.25 11.7326 12.25 13.125C12.25 14.5174 12.8031 15.8527 13.7877 16.8373C14.7723 17.8219 16.1076 18.375 17.5 18.375ZM17.5 20.125C19.3565 20.125 21.137 19.3875 22.4497 18.0747C23.7625 16.762 24.5 14.9815 24.5 13.125C24.5 11.2685 23.7625 9.48801 22.4497 8.17525C21.137 6.8625 19.3565 6.125 17.5 6.125C15.6435 6.125 13.863 6.8625 12.5503 8.17525C11.2375 9.48801 10.5 11.2685 10.5 13.125C10.5 14.9815 11.2375 16.762 12.5503 18.0747C13.863 19.3875 15.6435 20.125 17.5 20.125Z" fill="white"/>
<path fill-rule="evenodd" clip-rule="evenodd" d="M17.5 33.25C26.1984 33.25 33.25 26.1984 33.25 17.5C33.25 8.80163 26.1984 1.75 17.5 1.75C8.80163 1.75 1.75 8.80163 1.75 17.5C1.75 26.1984 8.80163 33.25 17.5 33.25ZM17.5 35C27.1652 35 35 27.1652 35 17.5C35 7.83475 27.1652 0 17.5 0C7.83475 0 0 7.83475 0 17.5C0 27.1652 7.83475 35 17.5 35Z" fill="white"/>
</svg>
