<svg width="24" height="32" viewBox="0 0 24 32" fill="none" xmlns="http://www.w3.org/2000/svg">
<path d="M20.4845 17.3143C22.7493 15.4 24 12.85 24 10.1429C24 7.43214 22.7535 4.88571 20.4845 2.97143C18.2197 1.05714 15.2028 0 12 0C8.79718 0 5.78028 1.05357 3.51549 2.97143C1.2507 4.88929 0 7.43214 0 10.1429C0 12.4214 0.883098 14.5857 2.50986 16.3536C2.81831 16.6893 3.15211 17.0071 3.51127 17.3143C3.87042 17.6179 4.2507 17.9 4.64366 18.1607C6.3169 19.2607 8.29014 19.9607 10.3944 20.1964V24H5.57746C5.39155 24 5.23944 24.1286 5.23944 24.2857V26.4286C5.23944 26.5857 5.39155 26.7143 5.57746 26.7143H10.3944V31.7143C10.3944 31.8714 10.5465 32 10.7324 32H13.2676C13.4535 32 13.6056 31.8714 13.6056 31.7143V26.7143H18.4225C18.6084 26.7143 18.7606 26.5857 18.7606 26.4286V24.2857C18.7606 24.1286 18.6084 24 18.4225 24H13.6056V20.1964C16.2042 19.9036 18.6 18.9071 20.4845 17.3143ZM12 17.5714C9.6507 17.5714 7.4493 16.8 5.78451 15.3964C4.12394 13.9929 3.21127 12.1286 3.21127 10.1429C3.21127 8.15714 4.12394 6.29643 5.78451 4.88929C7.44507 3.48214 9.6507 2.71429 12 2.71429C14.3493 2.71429 16.5507 3.48571 18.2155 4.88929C19.8761 6.29286 20.7887 8.15714 20.7887 10.1429C20.7887 12.1286 19.8761 13.9893 18.2155 15.3964C16.5507 16.8 14.3493 17.5714 12 17.5714Z" fill="white"/>
</svg>
