<svg width="35" height="30" viewBox="0 0 35 30" fill="none" xmlns="http://www.w3.org/2000/svg">
<path d="M29.5312 0C30.9817 0 32.3727 0.607828 33.3982 1.68977C34.4238 2.77171 35 4.23914 35 5.76923V24.2308C35 25.7609 34.4238 27.2283 33.3982 28.3102C32.3727 29.3922 30.9817 30 29.5312 30H5.46875C4.01835 30 2.62735 29.3922 1.60176 28.3102C0.57617 27.2283 0 25.7609 0 24.2308V5.76923C0 4.23914 0.57617 2.77171 1.60176 1.68977C2.62735 0.607828 4.01835 0 5.46875 0H29.5312ZM32.8125 9.14077L18.0556 18.3023C17.9161 18.3887 17.7602 18.4414 17.599 18.4566C17.4379 18.4717 17.2756 18.449 17.1238 18.39L16.9444 18.3023L2.1875 9.14538V24.2308C2.1875 25.1488 2.5332 26.0293 3.14856 26.6784C3.76391 27.3276 4.59851 27.6923 5.46875 27.6923H29.5312C30.4015 27.6923 31.2361 27.3276 31.8514 26.6784C32.4668 26.0293 32.8125 25.1488 32.8125 24.2308V9.14077ZM29.5312 2.30769H5.46875C4.59851 2.30769 3.76391 2.67239 3.14856 3.32155C2.5332 3.97072 2.1875 4.85117 2.1875 5.76923V6.46615L17.5 15.9692L32.8125 6.46154V5.76923C32.8125 4.85117 32.4668 3.97072 31.8514 3.32155C31.2361 2.67239 30.4015 2.30769 29.5312 2.30769Z" fill="white"/>
</svg>
