<svg width="21" height="13" viewBox="0 0 21 13" fill="none" xmlns="http://www.w3.org/2000/svg">
<path d="M7.70625 6.5C7.70625 7.09226 7.99044 7.66027 8.49631 8.07906C9.00217 8.49785 9.68826 8.73313 10.4037 8.73313C11.1191 8.73313 11.8052 8.49785 12.311 8.07906C12.8169 7.66027 13.1011 7.09226 13.1011 6.5C13.1011 5.90774 12.8169 5.33973 12.311 4.92094C11.8052 4.50215 11.1191 4.26687 10.4037 4.26687C9.68826 4.26687 9.00217 4.50215 8.49631 4.92094C7.99044 5.33973 7.70625 5.90774 7.70625 6.5ZM20.8609 5.98558C18.5778 2.00383 15.1265 0 10.5 0C5.87106 0 2.42223 2.00383 0.139074 5.98758C0.0474951 6.14812 0 6.32345 0 6.501C0 6.67854 0.0474951 6.85388 0.139074 7.01442C2.42223 10.9962 5.87346 13 10.5 13C15.1289 13 18.5778 10.9962 20.8609 7.01242C21.0464 6.68942 21.0464 6.31457 20.8609 5.98558ZM10.4037 10.0092C8.0627 10.0092 6.16488 8.43804 6.16488 6.5C6.16488 4.56196 8.0627 2.9908 10.4037 2.9908C12.7446 2.9908 14.6424 4.56196 14.6424 6.5C14.6424 8.43804 12.7446 10.0092 10.4037 10.0092Z" fill="#787878"/>
</svg>
