<svg width="28" height="27" viewBox="0 0 28 27" fill="none" xmlns="http://www.w3.org/2000/svg">
<path d="M26.9286 0H17.9286C17.8107 0 17.7143 0.0929847 17.7143 0.206633V2.1352C17.7143 2.24885 17.8107 2.34184 17.9286 2.34184H23.6571L16.5393 9.20548C14.7536 7.87959 12.575 7.16327 10.2857 7.16327C7.53929 7.16327 4.95357 8.19643 3.01429 10.0699C1.075 11.9434 0 14.4333 0 17.0816C0 19.73 1.07143 22.2233 3.01429 24.0934C4.95357 25.9668 7.53929 27 10.2857 27C13.0321 27 15.6179 25.9668 17.5571 24.0934C19.5 22.2233 20.5714 19.73 20.5714 17.0816C20.5714 14.8741 19.8286 12.7802 18.4571 11.0583L25.5714 4.19809V9.71173C25.5714 9.82538 25.6679 9.91837 25.7857 9.91837H27.7857C27.9036 9.91837 28 9.82538 28 9.71173V1.03316C28 0.464923 27.5179 0 26.9286 0ZM10.2857 24.3827C6.11071 24.3827 2.71429 21.1075 2.71429 17.0816C2.71429 13.0557 6.11071 9.78061 10.2857 9.78061C14.4607 9.78061 17.8571 13.0557 17.8571 17.0816C17.8571 21.1075 14.4607 24.3827 10.2857 24.3827Z" fill="white"/>
</svg>
