<svg width="35" height="35" viewBox="0 0 35 35" fill="none" xmlns="http://www.w3.org/2000/svg">
<path d="M28.4375 8.75C28.4375 9.33016 28.207 9.88656 27.7968 10.2968C27.3866 10.707 26.8302 10.9375 26.25 10.9375C25.6698 10.9375 25.1134 10.707 24.7032 10.2968C24.293 9.88656 24.0625 9.33016 24.0625 8.75C24.0625 8.16984 24.293 7.61344 24.7032 7.2032C25.1134 6.79297 25.6698 6.5625 26.25 6.5625C26.8302 6.5625 27.3866 6.79297 27.7968 7.2032C28.207 7.61344 28.4375 8.16984 28.4375 8.75ZM22.9688 0C16.24 0 10.9375 5.3025 10.9375 12.0312C10.9375 12.8997 11.025 13.7725 11.2044 14.6016C11.3313 15.1922 11.1869 15.7041 10.8938 15.9972L0.9625 25.9284C0.657198 26.2334 0.415036 26.5955 0.249877 26.9941C0.0847175 27.3928 -0.000195248 27.8201 3.37111e-07 28.2516V31.7188C3.37111e-07 32.589 0.345703 33.4236 0.961056 34.0389C1.57641 34.6543 2.41101 35 3.28125 35H7.65625C8.52649 35 9.36109 34.6543 9.97644 34.0389C10.5918 33.4236 10.9375 32.589 10.9375 31.7188V30.625H13.125C13.7052 30.625 14.2616 30.3945 14.6718 29.9843C15.082 29.5741 15.3125 29.0177 15.3125 28.4375V26.25H17.5C18.0802 26.25 18.6366 26.0195 19.0468 25.6093C19.457 25.1991 19.6875 24.6427 19.6875 24.0625V23.6687C20.7659 23.9619 21.8903 24.0625 22.9688 24.0625C29.6975 24.0625 35 18.76 35 12.0312C35 5.3025 29.6975 0 22.9688 0ZM13.125 12.0312C13.125 6.51 17.4475 2.1875 22.9688 2.1875C28.49 2.1875 32.8125 6.51 32.8125 12.0312C32.8125 17.5525 28.49 21.875 22.9688 21.875C21.525 21.875 20.1841 21.6672 19.0837 21.1159C18.917 21.0324 18.7316 20.9928 18.5453 21.0011C18.359 21.0094 18.1779 21.0651 18.0192 21.1631C17.8605 21.2611 17.7294 21.3981 17.6386 21.5609C17.5477 21.7238 17.5 21.9072 17.5 22.0938V24.0625H15.3125C14.7323 24.0625 14.1759 24.293 13.7657 24.7032C13.3555 25.1134 13.125 25.6698 13.125 26.25V28.4375H10.9375C10.3573 28.4375 9.80094 28.668 9.3907 29.0782C8.98047 29.4884 8.75 30.0448 8.75 30.625V31.7188C8.75 32.0088 8.63477 32.287 8.42965 32.4921C8.22453 32.6973 7.94633 32.8125 7.65625 32.8125H3.28125C2.99117 32.8125 2.71297 32.6973 2.50785 32.4921C2.30273 32.287 2.1875 32.0088 2.1875 31.7188V28.2494C2.18756 27.9599 2.30241 27.6822 2.50688 27.4772L12.4403 17.5438C13.3853 16.5988 13.5822 15.26 13.3416 14.14C13.1956 13.4466 13.123 12.7398 13.125 12.0312Z" fill="white"/>
</svg>
