<svg width="26" height="29" viewBox="0 0 26 29" fill="none" xmlns="http://www.w3.org/2000/svg">
<path d="M21.6666 12.6876V7.25006C21.6666 3.25339 17.78 0 13 0C8.22139 0 4.33343 3.25339 4.33343 7.25006V12.6876C1.94012 12.6876 0 14.3108 0 16.3124V25.3749C0 27.3771 1.94012 29 4.33343 29H21.6666C24.0594 29 26 27.3771 26 25.3749V16.3124C26.0001 14.3107 24.0594 12.6876 21.6666 12.6876ZM14.0834 21.472V24.4687C14.0834 24.9696 13.5989 25.3749 13.0001 25.3749C12.4012 25.3749 11.9167 24.9696 11.9167 24.4687V21.472C11.2808 21.157 10.8335 20.6011 10.8335 19.9375C10.8335 18.9355 11.8036 18.125 13 18.125C14.1964 18.125 15.1667 18.9355 15.1667 19.9375C15.1667 20.6011 14.7189 21.1571 14.0834 21.472ZM17.3331 12.6876H8.66671V7.25006C8.66671 5.24993 10.6101 3.62497 13 3.62497C15.3888 3.62497 17.3331 5.24993 17.3331 7.25006V12.6876H17.3331Z" fill="#424242" fill-opacity="0.9"/>
</svg>
