<svg width="26" height="26" viewBox="0 0 26 26" fill="none" xmlns="http://www.w3.org/2000/svg">
<path d="M11.8663 0H14.1337C14.3353 0 14.436 0.0962963 14.436 0.288889V25.7111C14.436 25.9037 14.3353 26 14.1337 26H11.8663C11.6647 26 11.5639 25.9037 11.5639 25.7111V0.288889C11.5639 0.0962963 11.6647 0 11.8663 0Z" fill="white"/>
<path d="M0.302326 11.6274H25.6977C25.8992 11.6274 26 11.7237 26 11.9163V14.083C26 14.2756 25.8992 14.3719 25.6977 14.3719H0.302326C0.100775 14.3719 0 14.2756 0 14.083V11.9163C0 11.7237 0.100775 11.6274 0.302326 11.6274Z" fill="white"/>
</svg>
